<svg width="718" height="176" viewBox="0 0 718 176" fill="none" xmlns="http://www.w3.org/2000/svg">
<path d="M3.64909 175.156C1.21636 175.156 0 174.264 0 172.48C0 171.021 1.05418 170.048 3.16255 169.561L8.75782 168.588C12.1636 167.939 14.3531 167.047 15.3262 165.912C16.4615 164.777 17.0291 162.506 17.0291 159.1V16.056C17.0291 12.6502 16.4615 10.3796 15.3262 9.24436C14.3531 8.10909 12.1636 7.21709 8.75782 6.56837L3.16255 5.59527C1.05418 5.10872 0 4.13563 0 2.67599C0 0.891998 1.21636 0 3.64909 0H48.168C50.6007 0 51.8171 0.973093 51.8171 2.91928C51.8171 4.37891 50.9251 5.2709 49.1411 5.59527L42.5727 6.56837C39.1669 7.0549 36.8964 7.9469 35.7611 9.24436C34.788 10.5418 34.3015 12.8935 34.3015 16.2993V77.3607C34.3015 79.6313 35.4367 80.7665 37.7073 80.7665H85.8753C88.1458 80.7665 89.2811 79.6313 89.2811 77.3607V16.2993C89.2811 12.8935 88.7135 10.5418 87.5782 9.24436C86.6051 7.9469 84.4156 7.0549 81.0098 6.56837L74.4415 5.59527C72.6575 5.2709 71.7654 4.37891 71.7654 2.91928C71.7654 0.973093 72.9818 0 75.4145 0H119.933C122.366 0 123.583 0.891998 123.583 2.67599C123.583 4.13563 122.528 5.10872 120.42 5.59527L114.825 6.56837C111.419 7.21709 109.148 8.10909 108.013 9.24436C107.04 10.3796 106.553 12.6502 106.553 16.056V159.1C106.553 162.506 107.04 164.777 108.013 165.912C109.148 167.047 111.419 167.939 114.825 168.588L120.42 169.561C122.528 170.048 123.583 171.021 123.583 172.48C123.583 174.264 122.366 175.156 119.933 175.156H75.4145C72.9818 175.156 71.7654 174.183 71.7654 172.237C71.7654 170.777 72.6575 169.885 74.4415 169.561L81.0098 168.588C84.4156 168.101 86.6051 167.209 87.5782 165.912C88.7135 164.615 89.2811 162.263 89.2811 158.857V91.4705C89.2811 89.2 88.1458 88.0647 85.8753 88.0647H37.7073C35.4367 88.0647 34.3015 89.2 34.3015 91.4705V158.857C34.3015 162.263 34.788 164.615 35.7611 165.912C36.8964 167.209 39.1669 168.101 42.5727 168.588L49.1411 169.561C50.9251 169.885 51.8171 170.777 51.8171 172.237C51.8171 174.183 50.6007 175.156 48.168 175.156H3.64909Z" fill="white"/>
<path d="M294.377 66.6567C301.027 55.304 309.055 49.6276 318.461 49.6276C323.813 49.6276 327.787 51.2495 330.382 54.4931C332.977 57.5746 334.274 61.0615 334.274 64.9538C334.274 68.0353 333.463 70.5491 331.841 72.4953C330.382 74.4415 328.03 75.4145 324.786 75.4145C322.191 75.4145 320.245 74.8469 318.948 73.7116C317.812 72.4142 316.839 70.9545 316.029 69.3327C315.38 67.7109 314.569 66.3324 313.596 65.1971C312.623 63.8996 311.001 63.2509 308.73 63.2509C305.811 63.2509 303.054 65.0349 300.459 68.6029C297.864 72.0087 295.675 76.6309 293.891 82.4695C292.269 88.308 291.458 94.9575 291.458 102.418V158.857C291.458 162.263 291.944 164.696 292.918 166.155C294.053 167.615 296.323 168.507 299.729 168.831L306.298 169.561C308.082 169.885 308.974 170.777 308.974 172.237C308.974 174.183 307.757 175.156 305.324 175.156H264.211C261.779 175.156 260.562 174.264 260.562 172.48C260.562 171.021 261.617 170.048 263.725 169.561L266.644 169.075C270.05 168.426 272.239 167.453 273.213 166.155C274.348 164.696 274.915 162.263 274.915 158.857V77.1174C274.915 74.1982 274.429 72.252 273.456 71.2789C272.645 70.1436 271.104 69.4138 268.834 69.0894L263.725 68.3596C261.617 68.1974 260.562 67.3055 260.562 65.6836C260.562 64.3862 261.86 63.4942 264.455 63.0076C269.482 62.1967 273.294 60.8993 275.889 59.1153C278.646 57.3313 281.484 55.1418 284.403 52.5469C285.863 51.0873 287.079 50.3575 288.052 50.3575C289.512 50.3575 290.242 51.3306 290.242 53.2767V66.4135C290.242 67.5487 290.728 68.2785 291.701 68.6029C292.674 68.7651 293.566 68.1164 294.377 66.6567Z" fill="white"/>
<path d="M362.094 27.9764C358.689 27.9764 355.769 26.76 353.337 24.3273C351.066 21.8946 349.931 18.8131 349.931 15.0829C349.931 11.3527 351.066 8.35237 353.337 6.08183C355.769 3.6491 358.689 2.43274 362.094 2.43274C365.5 2.43274 368.338 3.6491 370.609 6.08183C372.88 8.35237 374.015 11.3527 374.015 15.0829C374.015 18.8131 372.88 21.8946 370.609 24.3273C368.338 26.76 365.5 27.9764 362.094 27.9764ZM341.66 175.156C339.227 175.156 338.01 174.264 338.01 172.48C338.01 171.021 339.065 170.048 341.173 169.561L344.092 169.075C348.147 168.426 350.742 167.453 351.877 166.155C353.012 164.696 353.58 162.263 353.58 158.857V77.1174C353.58 74.1982 353.093 72.252 352.12 71.2789C351.309 70.1436 349.769 69.4138 347.498 69.0894L342.389 68.3596C340.281 68.1974 339.227 67.3055 339.227 65.6836C339.227 64.3862 340.524 63.4942 343.119 63.0076C348.147 62.1967 352.201 60.8993 355.283 59.1153C358.364 57.3313 361.365 55.1418 364.284 52.5469C365.744 51.0873 366.96 50.3575 367.933 50.3575C369.393 50.3575 370.122 51.3306 370.122 53.2767V158.857C370.122 162.263 370.609 164.696 371.582 166.155C372.555 167.615 374.42 168.507 377.177 168.831L383.259 169.561C385.043 169.885 385.935 170.777 385.935 172.237C385.935 174.183 384.719 175.156 382.286 175.156H341.66Z" fill="white"/>
<path d="M395.826 175.156C393.393 175.156 392.177 174.102 392.177 171.994C392.177 171.345 392.42 170.534 392.906 169.561C393.393 168.588 393.961 167.372 394.609 165.912L449.102 62.2778C449.913 60.9804 449.994 59.8451 449.346 58.872C448.859 57.8989 447.805 57.4124 446.183 57.4124H435.966C428.019 57.4124 422.099 58.7909 418.207 61.548C414.477 64.3051 411.395 68.2786 408.962 73.4684L403.61 84.6589C402.637 86.7673 401.421 87.8215 399.961 87.8215C397.853 87.8215 397.042 86.6051 397.529 84.1724L403.367 51.0873C404.016 47.1949 405.476 45.2487 407.746 45.2487C409.206 45.2487 410.098 45.7353 410.422 46.7084C410.746 47.6815 411.314 48.6546 412.125 49.6276C413.098 50.6007 415.125 51.0873 418.207 51.0873H466.861C469.294 51.0873 470.51 52.1415 470.51 54.2498C470.51 54.8986 470.267 55.7095 469.781 56.6826C469.456 57.6556 468.889 58.872 468.078 60.3316L413.828 163.966C413.179 165.263 413.017 166.399 413.341 167.372C413.828 168.345 414.963 168.831 416.747 168.831H427.694C437.263 168.831 443.994 167.534 447.886 164.939C451.778 162.182 454.941 157.803 457.374 151.802L464.672 134.043C465.645 131.935 466.861 130.881 468.321 130.881C470.429 130.881 471.24 132.259 470.754 135.016L464.429 170.777C463.942 173.697 462.239 175.156 459.32 175.156H395.826Z" fill="white"/>
<path d="M612.894 175.156C610.461 175.156 609.244 174.264 609.244 172.48C609.244 171.021 610.299 170.048 612.407 169.561L615.326 169.075C618.732 168.426 620.922 167.453 621.895 166.155C623.03 164.696 623.598 162.263 623.598 158.857V77.1174C623.598 74.1982 623.111 72.252 622.138 71.2789C621.327 70.1436 619.786 69.4138 617.516 69.0894L612.407 68.3596C610.299 68.1974 609.244 67.3055 609.244 65.6836C609.244 64.3862 610.542 63.4942 613.137 63.0076C618.164 62.1967 621.976 60.8993 624.571 59.1153C627.328 57.3313 630.166 55.1418 633.085 52.5469C634.545 51.0873 635.761 50.3575 636.734 50.3575C638.194 50.3575 638.924 51.3306 638.924 53.2767V64.224C638.924 65.6837 639.41 66.6567 640.383 67.1433C641.519 67.4676 642.735 66.9811 644.032 65.6836C650.52 59.5207 656.196 55.304 661.062 53.0335C666.089 50.7629 671.36 49.6276 676.874 49.6276C684.172 49.6276 690.011 52.2226 694.39 57.4124C698.769 62.44 700.958 69.9004 700.958 79.7935V158.857C700.958 162.263 701.445 164.696 702.418 166.155C703.553 167.453 705.824 168.345 709.23 168.831L714.582 169.561C716.366 169.885 717.258 170.859 717.258 172.48C717.258 174.264 716.284 175.156 714.338 175.156H673.468C671.198 175.156 670.063 174.264 670.063 172.48C670.063 170.859 670.955 169.885 672.739 169.561L676.144 169.075C679.55 168.588 681.74 167.615 682.713 166.155C683.848 164.696 684.416 162.263 684.416 158.857V82.4695C684.416 74.5225 682.956 68.9273 680.037 65.6836C677.118 62.44 672.982 60.8182 667.63 60.8182C662.44 60.8182 657.737 62.3589 653.52 65.4404C649.466 68.3596 646.222 72.3331 643.789 77.3607C641.356 82.2262 640.14 87.6593 640.14 93.66V158.857C640.14 162.263 640.627 164.696 641.6 166.155C642.735 167.615 645.006 168.507 648.411 168.831L654.98 169.561C656.764 169.885 657.656 170.777 657.656 172.237C657.656 174.183 656.439 175.156 654.007 175.156H612.894Z" fill="white"/>
<path d="M509.872 169.075C500.39 163.398 492.805 155.695 487.116 145.964C481.427 136.233 478.583 125.367 478.583 113.365C478.583 101.364 481.427 90.5786 487.116 81.0099C492.805 71.4411 500.509 63.8186 510.227 58.1422C519.946 52.4659 530.731 49.6277 542.583 49.6277C554.671 49.6277 565.457 52.4659 574.938 58.1422C584.657 63.8186 592.36 71.4411 598.049 81.0099C603.738 90.5786 606.583 101.364 606.583 113.365C606.583 125.367 603.738 136.233 598.049 145.964C592.597 155.695 585.012 163.398 575.294 169.075C575.294 169.075 583.945 157.802 583.945 119.365C583.945 80.9281 567.234 55.7095 542.583 55.7095C517.931 55.7095 501.22 80.9281 501.22 119.365C501.22 157.802 509.872 169.075 509.872 169.075Z" fill="white"/>
<path d="M157.872 169.075C148.39 163.398 140.805 155.695 135.116 145.964C129.427 136.233 126.583 125.367 126.583 113.365C126.583 101.364 129.427 90.5786 135.116 81.0099C140.805 71.4411 148.509 63.8186 158.227 58.1422C167.946 52.4659 178.731 49.6277 190.583 49.6277C202.672 49.6277 213.457 52.4659 222.938 58.1422C232.657 63.8186 240.36 71.4411 246.049 81.0099C251.738 90.5786 254.583 101.364 254.583 113.365C254.583 125.367 251.738 136.233 246.049 145.964C240.597 155.695 233.012 163.398 223.294 169.075C223.294 169.075 231.945 157.802 231.945 119.365C231.945 80.9281 215.235 55.7095 190.583 55.7095C165.931 55.7095 149.22 80.9281 149.22 119.365C149.22 157.802 157.872 169.075 157.872 169.075Z" fill="white"/>
</svg>
